<?xml version="1.0" encoding="UTF-8" standalone="no"?>
<!-- Created with Inkscape (http://www.inkscape.org/) -->

<svg
   width="35.536545mm"
   height="15.643965mm"
   viewBox="0 0 35.333137 15.643965"
   version="1.1"
   id="svg5"
   sodipodi:docname="cureincro.svg"
   inkscape:version="1.1 (c68e22c387, 2021-05-23)"
   xmlns:inkscape="http://www.inkscape.org/namespaces/inkscape"
   xmlns:sodipodi="http://sodipodi.sourceforge.net/DTD/sodipodi-0.dtd"
   xmlns:xlink="http://www.w3.org/1999/xlink"
   xmlns="http://www.w3.org/2000/svg"
   xmlns:svg="http://www.w3.org/2000/svg">
  <sodipodi:namedview
     id="namedview7"
     pagecolor="#ffffff"
     bordercolor="#666666"
     borderopacity="1.0"
     inkscape:pageshadow="2"
     inkscape:pageopacity="0.0"
     inkscape:pagecheckerboard="0"
     inkscape:document-units="px"
     showgrid="false"
     inkscape:zoom="7.2407734"
     inkscape:cx="66.636528"
     inkscape:cy="34.319538"
     inkscape:window-width="1920"
     inkscape:window-height="1001"
     inkscape:window-x="-9"
     inkscape:window-y="-9"
     inkscape:window-maximized="1"
     inkscape:current-layer="g227913"
     units="mm"
     viewbox-width="100"
     fit-margin-top="0"
     fit-margin-left="0"
     fit-margin-right="0"
     fit-margin-bottom="0"
     showguides="true"
     inkscape:guide-bbox="true">
    <sodipodi:guide
       position="1.8118103,21.943216"
       orientation="1,0"
       id="guide233531" />
  </sodipodi:namedview>
  <defs
     id="defs2">
    <linearGradient
       inkscape:collect="always"
       id="linearGradient226212-8-9">
      <stop
         style="stop-color:#0000ff;stop-opacity:1"
         offset="0"
         id="stop226221" />
      <stop
         style="stop-color:#ff88ff;stop-opacity:1"
         offset="0.49440095"
         id="stop227577" />
      <stop
         style="stop-color:#00ffff;stop-opacity:1"
         offset="1"
         id="stop226223" />
    </linearGradient>
    <linearGradient
       id="linearGradient223031"
       inkscape:swatch="gradient">
      <stop
         style="stop-color:#00adff;stop-opacity:1;"
         offset="0"
         id="stop223027" />
      <stop
         style="stop-color:#00adff;stop-opacity:0;"
         offset="1"
         id="stop223029" />
    </linearGradient>
    <linearGradient
       id="linearGradient222991"
       inkscape:swatch="solid">
      <stop
         style="stop-color:#00adff;stop-opacity:1;"
         offset="0"
         id="stop222989" />
    </linearGradient>
    <linearGradient
       inkscape:collect="always"
       xlink:href="#linearGradient226212-8-9"
       id="linearGradient226214"
       x1="18.769491"
       y1="8.3920908"
       x2="39.932705"
       y2="8.3920908"
       gradientUnits="userSpaceOnUse"
       gradientTransform="translate(14.177813,20.31666)" />
  </defs>
  <g
     inkscape:label="Layer 1"
     inkscape:groupmode="layer"
     id="layer1"
     transform="translate(-3.7504681,-2.593516)">
    <text
       xml:space="preserve"
       style="font-style:normal;font-variant:normal;font-weight:normal;font-stretch:normal;font-size:4.93889px;line-height:1.25;font-family:'Modern No. 20';-inkscape-font-specification:'Modern No. 20, ';fill:#000000;fill-opacity:1;stroke:none;stroke-width:0.264583"
       x="4.4543695"
       y="7.3261204"
       id="text2079"><tspan
         sodipodi:role="line"
         id="tspan2077"
         style="font-style:normal;font-variant:normal;font-weight:normal;font-stretch:normal;font-size:4.93889px;font-family:'Modern No. 20';-inkscape-font-specification:'Modern No. 20, ';stroke-width:0.264583"
         x="4.4543695"
         y="7.3261204" /></text>
    <text
       xml:space="preserve"
       style="font-style:normal;font-weight:normal;font-size:10.5833px;line-height:1.25;font-family:sans-serif;fill:#000000;fill-opacity:1;stroke:none;stroke-width:0.264583"
       x="4.5821242"
       y="5.7320786"
       id="text168831"><tspan
         sodipodi:role="line"
         id="tspan168829"
         style="stroke-width:0.264583"
         x="4.5821242"
         y="5.7320786"></tspan></text>
    <g
       id="g227913">
      <g
         id="g228025"
         transform="translate(-14.882813,-18.293457)">
        <path
           style="color:#000000;fill:url(#linearGradient226214);-inkscape-stroke:none"
           d="m 38.423907,20.886973 -5.476563,5.673828 8.320313,3.408203 0.07813,-0.08203 c 0,0 1.006058,-1.052892 2.105468,-2.160156 0.549706,-0.553632 1.122195,-1.121265 1.603516,-1.576172 0.481321,-0.454907 0.890603,-0.806302 1.035156,-0.890625 0.01348,-0.0079 0.161262,-0.02606 0.376953,0.02344 0.215692,0.0495 0.499866,0.146164 0.820313,0.277344 0.640894,0.26236 1.435628,0.659144 2.210937,1.078125 0.77531,0.41898 1.530654,0.859983 2.09961,1.210937 0.284478,0.175477 0.523308,0.328048 0.691406,0.44336 0.08405,0.05766 0.150813,0.107456 0.195313,0.142578 0.02225,0.01756 0.03804,0.03068 0.04687,0.03906 0.0088,0.0084 0.0102,0.01844 -0.0059,-0.01367 0.140683,0.28136 0.267929,0.341483 1.019531,1.40625 0.171401,0.242816 0.27393,0.521847 0.21875,0.826171 -0.05518,0.304324 -0.271379,0.656259 -0.80664,1.033203 -1.070523,0.753889 -3.398685,1.562167 -7.916016,2.158203 -4.551584,0.600556 -6.633333,1.830671 -7.707031,2.201172 -0.268424,0.09263 -0.465926,0.125994 -0.611328,0.103516 -0.145403,-0.02248 -0.257263,-0.0902 -0.390625,-0.267578 -0.266723,-0.35476 -0.546351,-1.138875 -0.986328,-2.490235 l -0.316407,0.103516 c 0.440679,1.353511 0.702314,2.140637 1.03711,2.585938 0.167398,0.22265 0.37099,0.362188 0.605469,0.398437 0.234478,0.03625 0.481636,-0.01912 0.771484,-0.119141 1.159393,-0.400072 3.134037,-1.592881 7.640625,-2.1875 4.540842,-0.599139 6.901884,-1.396133 8.064453,-2.214843 0.581285,-0.409356 0.866846,-0.834886 0.941406,-1.246094 0.07456,-0.411209 -0.06741,-0.784305 -0.273437,-1.076172 -0.758098,-1.073969 -0.881251,-1.141412 -0.992188,-1.363281 -0.02392,-0.04784 -0.04201,-0.05868 -0.0625,-0.07813 -0.02049,-0.01944 -0.04503,-0.03905 -0.07227,-0.06055 -0.05442,-0.04299 -0.125138,-0.09413 -0.212846,-0.154297 -0.175416,-0.120332 -0.41557,-0.27575 -0.703125,-0.453125 -0.57511,-0.35475 -1.335624,-0.798343 -2.117187,-1.220703 -0.781564,-0.42236 -1.583709,-0.823392 -2.244141,-1.09375 -0.330216,-0.135179 -0.625326,-0.236565 -0.871094,-0.292969 -0.0086,-0.002 -0.01305,0.0019 -0.02148,0 z m 0.06836,0.408203 7.388672,3.714844 c -0.234565,0.14587 -0.587986,0.457346 -1.054689,0.898437 -0.485827,0.459166 -1.060214,1.028934 -1.611328,1.583984 -1.060416,1.067992 -1.957037,2.006445 -2.029297,2.082032 l -7.658203,-3.134766 z"
           id="path134654" />
        <g
           aria-label="curein"
           id="text176183"
           style="font-size:10.5833px;stroke-width:0.264583"
           transform="translate(14.177813,20.31666)">
          <path
             style="color:#000000;fill:#000000;-inkscape-stroke:none"
             d="m 9.0775045,11.947959 q -0.485757,0.232543 -0.9250052,0.361733 -0.4340807,0.129191 -0.9250052,0.129191 -0.6252829,0 -1.1472132,-0.180867 Q 5.5583506,12.071982 5.1862815,11.699912 4.8090447,11.327843 4.6023397,10.759404 4.3956346,10.190965 4.3956346,9.4313243 q 0,-1.4159298 0.775144,-2.2220795 0.7803117,-0.8061498 2.0567155,-0.8061498 0.4960921,0 0.9715138,0.1395259 0.4805893,0.1395259 0.8784966,0.3410634 v 1.080034 H 9.0258282 Q 8.5814123,7.6174873 8.1059906,7.4314527 7.6357366,7.2454181 7.1861531,7.2454181 q -0.8268203,0 -1.3074096,0.5581037 -0.4754217,0.5529361 -0.4754217,1.6278025 0,1.0438607 0.4650864,1.6071317 0.4702541,0.558104 1.3177449,0.558104 0.2945547,0 0.5994447,-0.07752 0.3048899,-0.07751 0.5477684,-0.201537 0.2118727,-0.10852 0.3979073,-0.227376 0.1860345,-0.124023 0.2945547,-0.211872 h 0.051676 z"
             id="path228260" />
          <path
             style="color:#000000;fill:#000000;-inkscape-stroke:none"
             d="m 15.108125,12.309692 h -0.971514 v -0.640785 q -0.490924,0.387572 -0.940508,0.594277 -0.449583,0.206705 -0.992184,0.206705 -0.909503,0 -1.41593,-0.552936 -0.506427,-0.558104 -0.506427,-1.63297 V 6.5374533 h 0.971513 v 3.2866106 q 0,0.4392481 0.04134,0.7544731 0.04134,0.310058 0.1757,0.532266 0.139526,0.227376 0.361734,0.330728 0.222208,0.103353 0.645953,0.103353 0.377237,0 0.821653,-0.19637 0.449583,-0.19637 0.837155,-0.50126 V 6.5374533 h 0.971514 z"
             id="path228262" />
          <path
             style="color:#000000;fill:#000000;-inkscape-stroke:none"
             d="m 20.621982,7.5968168 h -0.05168 q -0.21704,-0.051676 -0.423746,-0.072347 -0.201537,-0.025838 -0.480589,-0.025838 -0.449583,0 -0.868161,0.2015374 -0.418578,0.1963698 -0.80615,0.511595 v 4.0979278 h -0.97151 V 6.5374533 h 0.971514 v 0.8526584 q 0.578774,-0.4650864 1.018023,-0.6562886 0.444415,-0.1963698 0.904334,-0.1963698 0.253214,0 0.366902,0.015503 0.113688,0.010335 0.341063,0.046509 z"
             id="path228264" />
          <path
             style="color:#000000;fill:#000000;-inkscape-stroke:none"
             d="m 26.368383,9.5243416 h -4.252956 q 0,0.5322654 0.160196,0.9301724 0.160197,0.39274 0.439248,0.645954 0.268717,0.248046 0.635618,0.372069 0.37207,0.124023 0.816485,0.124023 0.58911,0 1.183387,-0.232543 0.599445,-0.237711 0.852658,-0.465087 h 0.05168 v 1.059364 q -0.490925,0.206705 -1.00252,0.346231 -0.511595,0.139526 -1.074866,0.139526 -1.4366,0 -2.24275,-0.775144 -0.80615,-0.780312 -0.80615,-2.2117446 0,-1.4159297 0.769976,-2.2479176 0.775144,-0.831988 2.036045,-0.831988 1.167884,0 1.798334,0.6821268 0.635618,0.6821267 0.635618,1.93786 z M 25.422708,8.7802033 Q 25.41754,8.0153945 25.035136,7.5968168 24.657899,7.178239 23.882755,7.178239 q -0.780312,0 -1.245398,0.4599188 -0.459919,0.4599188 -0.52193,1.1420455 z"
             id="path228266" />
          <path
             style="color:#000000;fill:#000000;-inkscape-stroke:none"
             d="M 28.885017,5.5711071 H 27.789481 V 4.5634198 h 1.095536 z m -0.06201,6.7385849 H 27.851492 V 6.5374533 h 0.971514 z"
             id="path228268" />
          <path
             style="color:#000000;fill:#000000;-inkscape-stroke:none"
             d="M 35.571927,12.309692 H 34.600414 V 9.0230818 q 0,-0.3979073 -0.04651,-0.7441383 Q 34.507396,7.9275449 34.383373,7.7311751 34.254183,7.5141347 34.011304,7.4107822 33.768426,7.302262 33.380854,7.302262 q -0.397908,0 -0.831988,0.1963699 -0.434081,0.1963698 -0.831988,0.5012598 V 12.309692 H 30.745364 V 6.5374533 h 0.971514 V 7.178239 q 0.454751,-0.3772368 0.940508,-0.5891095 0.485757,-0.2118727 0.997352,-0.2118727 0.93534,0 1.426265,0.5632714 0.490924,0.5632713 0.490924,1.6226348 z"
             id="path228270" />
        </g>
      </g>
    </g>
  </g>
  <g
     inkscape:groupmode="layer"
     id="layer2"
     inkscape:label="Layer 2"
     transform="translate(-3.7504681,-2.593516)" />
</svg>
